<?xml version="1.0" encoding="UTF-8" standalone="no"?>
<!-- Created with Inkscape (http://www.inkscape.org/) -->

<svg
   width="578.60394"
   height="134.24963"
   viewBox="0 0 153.08896 35.520215"
   version="1.1"
   id="svg1"
   inkscape:version="1.4.4 (dcaf3e7, 2026-05-05)"
   sodipodi:docname="TakaLink white background.svg"
   xml:space="preserve"
   inkscape:export-filename="TakaLink white background.png"
   inkscape:export-xdpi="96"
   inkscape:export-ydpi="96"
   xmlns:inkscape="http://www.inkscape.org/namespaces/inkscape"
   xmlns:sodipodi="http://sodipodi.sourceforge.net/DTD/sodipodi-0.dtd"
   xmlns:xlink="http://www.w3.org/1999/xlink"
   xmlns="http://www.w3.org/2000/svg"
   xmlns:svg="http://www.w3.org/2000/svg"><sodipodi:namedview
     id="namedview1"
     pagecolor="#ffffff"
     bordercolor="#000000"
     borderopacity="0.25"
     inkscape:showpageshadow="2"
     inkscape:pageopacity="0.0"
     inkscape:pagecheckerboard="0"
     inkscape:deskcolor="#d1d1d1"
     inkscape:document-units="mm"
     inkscape:zoom="0.44809905"
     inkscape:cx="538.94334"
     inkscape:cy="384.95953"
     inkscape:window-width="1366"
     inkscape:window-height="705"
     inkscape:window-x="-8"
     inkscape:window-y="-8"
     inkscape:window-maximized="1"
     inkscape:current-layer="layer1"><inkscape:page
       x="0"
       y="0"
       width="153.08896"
       height="35.520214"
       id="page2"
       margin="0"
       bleed="0" /></sodipodi:namedview><defs
     id="defs1"><linearGradient
       id="linearGradient4"
       inkscape:collect="always"><stop
         style="stop-color:#2563eb;stop-opacity:1;"
         offset="0.49080884"
         id="stop4" /><stop
         style="stop-color:#0f172a;stop-opacity:1;"
         offset="0.49080884"
         id="stop5" /></linearGradient><linearGradient
       inkscape:collect="always"
       xlink:href="#linearGradient4"
       id="linearGradient5"
       x1="63.03006"
       y1="97.616829"
       x2="80.674133"
       y2="97.616829"
       gradientUnits="userSpaceOnUse"
       gradientTransform="translate(-1.1396442,1.0331721)" /></defs><g
     inkscape:label="Text"
     inkscape:groupmode="layer"
     id="layer1"
     transform="translate(-61.890183,-85.732156)"><text
       xml:space="preserve"
       style="font-style:normal;font-variant:normal;font-weight:normal;font-stretch:normal;font-size:31.75px;font-family:'Segoe UI';-inkscape-font-specification:'Segoe UI, Normal';font-variant-ligatures:normal;font-variant-caps:normal;font-variant-numeric:normal;font-variant-east-asian:normal;letter-spacing:1.32292px;word-spacing:1.32292px;writing-mode:lr-tb;direction:ltr;fill:#ffff00;stroke:none;stroke-width:0.264583;stroke-linecap:round;stroke-linejoin:round;paint-order:stroke markers fill"
       x="81.540245"
       y="109.2346"
       id="text1"
       inkscape:label="TakaLink"><tspan
         sodipodi:role="line"
         id="tspan1"
         style="font-style:normal;font-variant:normal;font-weight:normal;font-stretch:normal;font-size:31.75px;font-family:'Segoe UI';-inkscape-font-specification:'Segoe UI, Normal';font-variant-ligatures:normal;font-variant-caps:normal;font-variant-numeric:normal;font-variant-east-asian:normal;stroke:none;stroke-width:0.264583"
         x="81.540245"
         y="109.2346"><tspan
           style="font-style:normal;font-variant:normal;font-weight:bold;font-stretch:normal;font-size:31.75px;font-family:'Segoe UI';-inkscape-font-specification:'Segoe UI, Bold';font-variant-ligatures:normal;font-variant-caps:normal;font-variant-numeric:normal;font-variant-east-asian:normal;fill:#2563eb;fill-opacity:1;stroke:none"
           id="tspan2">Taka</tspan><tspan
           style="font-style:normal;font-variant:normal;font-weight:normal;font-stretch:normal;font-size:31.75px;font-family:'Segoe UI';-inkscape-font-specification:'Segoe UI, Normal';font-variant-ligatures:normal;font-variant-caps:normal;font-variant-numeric:normal;font-variant-east-asian:normal;fill:#0f172a;fill-opacity:1;stroke:none"
           id="tspan3">Link</tspan></tspan></text><text
       xml:space="preserve"
       style="font-style:normal;font-variant:normal;font-weight:bold;font-stretch:normal;font-size:9.43277px;font-family:'Segoe UI';-inkscape-font-specification:'Segoe UI, Bold';font-variant-ligatures:normal;font-variant-caps:normal;font-variant-numeric:normal;font-variant-east-asian:normal;letter-spacing:1.57213px;word-spacing:1.57213px;writing-mode:lr-tb;direction:ltr;fill:#475569;fill-opacity:1;stroke:none;stroke-width:0.314425;stroke-linecap:round;stroke-linejoin:round;paint-order:stroke markers fill"
       x="63.612461"
       y="119.03696"
       id="text4"><tspan
         sodipodi:role="line"
         id="tspan4"
         style="font-style:normal;font-variant:normal;font-weight:bold;font-stretch:normal;font-size:9.43277px;font-family:'Segoe UI';-inkscape-font-specification:'Segoe UI, Bold';font-variant-ligatures:normal;font-variant-caps:normal;font-variant-numeric:normal;font-variant-east-asian:normal;fill:#475569;fill-opacity:1;stroke:none;stroke-width:0.314425"
         x="63.612461"
         y="119.03696">Connect. Collect. Recycle</tspan></text></g><g
     inkscape:groupmode="layer"
     id="layer3"
     inkscape:label="Icon"
     transform="translate(-61.890183,-85.732156)"><path
       d="m 78.370633,90.590408 c -1.971488,-2.895194 -5.838637,-3.755927 -8.644209,-1.956211 l -4.928713,3.286435 c -1.364881,0.860732 -2.274798,2.269201 -2.578095,3.912412 -0.22747,1.330224 0,2.738695 0.606607,3.990649 -0.454957,0.625997 -0.682437,1.408467 -0.834087,2.190937 -0.303307,1.64324 0.0758,3.36469 1.061564,4.69492 1.971491,2.8952 5.838637,3.75592 8.644212,1.95622 l 4.928713,-3.28645 c 1.364881,-0.86074 2.274795,-2.26919 2.578105,-3.91244 0.227457,-1.33021 0,-2.738671 -0.606617,-3.990625 0.454957,-0.625987 0.682437,-1.408471 0.834094,-2.190948 0.3033,-1.64321 -0.0758,-3.364675 -1.061574,-4.694899 z m -1.364871,4.147162 c 0,0.15651 -0.0758,0.31299 -0.15166,0.46949 l -0.0758,0.312987 -0.227467,-0.1565 C 75.944218,94.89406 75.337611,94.581073 74.579347,94.346323 l -0.15166,-0.0782 v -0.156507 c 0,-0.23473 -0.0758,-0.547736 -0.22747,-0.782482 -0.303307,-0.391243 -0.758264,-0.625989 -1.289051,-0.46949 -0.0758,0 -0.22746,0.07825 -0.3033,0.156505 l -4.92872,3.208175 c -0.22746,0.156497 -0.37913,0.391237 -0.45496,0.704234 -0.0758,0.31298 0,0.625987 0.15166,0.860717 0.30331,0.391237 0.758267,0.625994 1.289054,0.469497 0.0758,0 0.227467,-0.0784 0.303307,-0.15645 l 1.895651,-1.251954 c 0.303297,-0.234727 0.682434,-0.391237 0.985734,-0.469487 1.592361,-0.391247 3.260542,0.23473 4.246286,1.643211 0.530787,0.782477 0.758264,1.877951 0.606607,2.816938 -0.15166,0.93897 -0.758267,1.7997 -1.516524,2.34745 l -4.92872,3.28643 c -0.30331,0.23484 -0.682437,0.39123 -0.985744,0.46949 -1.592351,0.39126 -3.260532,-0.23482 -4.246276,-1.64324 -0.530787,-0.78247 -0.758267,-1.87795 -0.606607,-2.81694 0,-0.15652 0.0758,-0.31298 0.151657,-0.46949 l 0.0758,-0.23483 0.22747,0.15653 c 0.606607,0.4695 1.213214,0.7825 1.971478,1.01724 l 0.15166,0.0785 v 0.15653 c 0,0.23481 0.0758,0.54774 0.227467,0.78247 0.3033,0.39127 0.758267,0.626 1.289054,0.4695 0.0758,0 0.22746,-0.0785 0.303297,-0.15653 l 4.928723,-3.28642 c 0.22746,-0.15646 0.379127,-0.39125 0.454957,-0.70424 0.0758,-0.312977 0,-0.625987 -0.151657,-0.860714 -0.30331,-0.39124 -0.758267,-0.625997 -1.289054,-0.46949 -0.0758,0 -0.22747,0.0784 -0.303307,0.15645 l -1.895661,1.251804 c -0.303307,0.23481 -0.682437,0.39123 -0.985744,0.46948 -1.592361,0.39123 -3.260542,-0.23482 -4.246276,-1.643194 -0.606617,-0.782507 -0.758267,-1.877958 -0.606617,-2.816945 0.15166,-0.938974 0.758267,-1.799708 1.516531,-2.347435 l 4.928713,-3.286441 c 0.303307,-0.234729 0.682437,-0.391243 0.985744,-0.469489 1.592351,-0.391244 3.260532,0.234731 4.246276,1.643218 0.530787,0.860732 0.758267,1.877962 0.606617,2.816936 z"
       id="path1"
       style="fill:url(#linearGradient5);fill-opacity:1;stroke:none;stroke-width:0.77028" /></g></svg>
